HIERARCHY
ROOT Hips
{
  OFFSET 0 89.5177 0.535
  CHANNELS 6 Xposition Yposition Zposition Zrotation Xrotation Yrotation
  JOINT Spine
  {
    OFFSET 12.0259 -0.162855 1.69034e-005
    CHANNELS 3 Zrotation Xrotation Yrotation
    JOINT Spine1
    {
      OFFSET 15.3169 -0.0121922 0
      CHANNELS 3 Zrotation Xrotation Yrotation
      JOINT Spine2
      {
        OFFSET 15.3176 -0.0121908 0
        CHANNELS 3 Zrotation Xrotation Yrotation
        JOINT Neck
        {
          OFFSET 19.9142 1.56338 0
          CHANNELS 3 Zrotation Xrotation Yrotation
          JOINT Head
          {
            OFFSET 6.92651 0 0
            CHANNELS 3 Zrotation Xrotation Yrotation
            End Site
            {
              OFFSET 20.7666 0 0
            }
          }
          JOINT LeftShoulder
          {
            OFFSET -6.20654 0.708824 7.28219
            CHANNELS 3 Zrotation Xrotation Yrotation
            JOINT LeftArm
            {
              OFFSET 14.108 0 -1.52588e-005
              CHANNELS 3 Zrotation Xrotation Yrotation
              JOINT LeftForeArm
              {
                OFFSET 28.5802 0 0
                CHANNELS 3 Zrotation Xrotation Yrotation
                JOINT LeftHand
                {
                  OFFSET 27.092 0 0
                  CHANNELS 3 Zrotation Xrotation Yrotation
                  End Site
                  {
                    OFFSET 9.55928 -0.186424 0.145352
                  }
                }
              }
            }
          }
          JOINT RightShoulder
          {
            OFFSET -6.20654 0.708866 -7.28218
            CHANNELS 3 Zrotation Xrotation Yrotation
            JOINT RightArm
            {
              OFFSET 14.108 0 1.52588e-005
              CHANNELS 3 Zrotation Xrotation Yrotation
              JOINT RightForeArm
              {
                OFFSET 28.5802 0 0
                CHANNELS 3 Zrotation Xrotation Yrotation
                JOINT RightHand
                {
                  OFFSET 27.092 0 0
                  CHANNELS 3 Zrotation Xrotation Yrotation
                  End Site
                  {
                    OFFSET 9.55929 -0.186417 -0.145354
                  }
                }
              }
            }
          }
        }
      }
    }
  }
  JOINT LeftUpLeg
  {
    OFFSET 0.005 -0.535 8.837
    CHANNELS 3 Zrotation Xrotation Yrotation
    JOINT LeftLeg
    {
      OFFSET 39.9035 0 0
      CHANNELS 3 Zrotation Xrotation Yrotation
      JOINT LeftFoot
      {
        OFFSET 39.6689 0 0
        CHANNELS 3 Zrotation Xrotation Yrotation
        JOINT LeftToe
        {
          OFFSET 10.1624 13.6296 0
          CHANNELS 3 Zrotation Xrotation Yrotation
          End Site
          {
            OFFSET 8.38147 0 0
          }
        }
      }
    }
  }
  JOINT RightUpLeg
  {
    OFFSET 0.005 -0.535 -8.837
    CHANNELS 3 Zrotation Xrotation Yrotation
    JOINT RightLeg
    {
      OFFSET 39.9035 0 0
      CHANNELS 3 Zrotation Xrotation Yrotation
      JOINT RightFoot
      {
        OFFSET 39.6689 0 0
        CHANNELS 3 Zrotation Xrotation Yrotation
        JOINT RightToe
        {
          OFFSET 10.1624 13.6296 0
          CHANNELS 3 Zrotation Xrotation Yrotation
          End Site
          {
            OFFSET 8.38147 0 0
          }
        }
      }
    }
  }
}
MOTION
Frames:	17
Frame Time:	0.0333333
411.117 89.1379 9.20772 159.561 -84.9103 68.5937 -0.644648 -1.05146 0.478303 -1.28081 -2.10774 0.945159 -1.28081 -2.10774 0.94515 -8.30768e-012 -9.0191e-006 -5.27751e-005 -11.0095 -4.91783 -1.22649 178.935 -11.123 -95.5022 67.9719 -70.2193 50.1646 -10.9281 3.18055e-015 -0 -38.8668 -17.2584 -34.4971 179.208 4.5559 99.8734 64.8697 58.648 -46.9726 -26.3041 -6.36111e-015 -0 -34.2859 25.616 33.7423 -6.59071 2.87197 -177.61 -16.6939 -7.95139e-016 -0 18.1623 12.5806 -7.57916 90 -8.94531e-016 -3.18055e-015 -3.03014 -4.61351 179.246 -10.4735 7.95139e-016 2.98177e-016 12.4604 -10.3315 8.90065 90 -1.963e-015 -0 
411.177 89.1364 9.31458 159.037 -84.9813 68.0774 -0.625778 -1.02627 0.46648 -1.24348 -2.05707 0.92212 -1.24348 -2.05707 0.92211 -8.30748e-012 -9.0191e-006 -5.27751e-005 -11.0454 -5.20758 -1.16714 179.014 -11.007 -95.1521 67.9505 -70.4114 51.8076 -10.598 1.59028e-015 3.18055e-015 -38.9833 -16.5957 -33.889 179.247 4.37738 99.7749 64.6875 58.4213 -48.0335 -25.9024 -3.18055e-015 -0 -33.9999 25.5822 33.4351 -6.62332 2.87337 -177.581 -16.7637 0 3.97569e-016 18.1409 12.5955 -7.5359 90 -7.95139e-016 -1.59028e-015 -3.22429 -4.66121 179.251 -10.8723 3.97569e-016 9.93923e-017 12.5783 -10.3792 8.95401 90 -3.72721e-016 -0 
411.241 89.143 9.41292 158.407 -84.9928 67.4434 -0.621396 -1.00509 0.461735 -1.23495 -2.01462 0.912929 -1.23495 -2.01462 0.91292 -8.30748e-012 -9.0191e-006 -5.27751e-005 -11.2296 -5.57947 -1.23421 179.101 -10.8562 -94.7631 67.1523 -70.7179 52.617 -10.0883 0 6.36111e-015 -38.8857 -16.2111 -33.4846 179.255 4.32567 99.783 64.7007 58.3728 -49.4498 -25.3714 0 6.36111e-015 -33.9426 25.3532 33.316 -6.66819 2.80955 -177.547 -16.7588 -7.95139e-016 -5.96354e-016 18.0649 12.5705 -7.5099 90 -9.93923e-016 -1.59028e-015 -3.39941 -4.77145 179.266 -11.1477 0 1.98785e-016 12.6434 -10.4458 9.05906 90 -6.4605e-016 -3.18055e-015 
411.309 89.1474 9.50465 157.395 -84.9564 66.4143 -0.617798 -0.992852 0.456777 -1.22793 -1.99008 0.9032 -1.22793 -1.99008 0.903191 -8.30748e-012 -9.0191e-006 -5.27751e-005 -11.437 -6.04507 -1.1982 179.152 -10.6801 -94.5653 66.5903 -71.0507 53.5024 -9.51693 -1.59028e-015 -3.18055e-015 -38.7582 -15.6975 -32.9297 179.268 4.23089 99.8251 64.3118 58.1926 -50.2533 -24.8318 -3.18055e-015 3.18055e-015 -33.6733 25.3547 33.1846 -6.79352 2.79581 -177.475 -16.8539 0 5.96354e-016 18.0969 12.6647 -7.55215 90 4.47266e-016 -0 -3.55447 -4.89191 179.304 -11.3512 -7.95139e-016 -2.98177e-016 12.6841 -10.4837 9.12722 90 3.8763e-015 4.77083e-015 
411.376 89.1522 9.60022 156.219 -84.8886 65.2184 -0.616762 -0.987963 0.448467 -1.23042 -1.98022 0.886608 -1.23042 -1.98022 0.886598 -8.30728e-012 -9.0191e-006 -5.27751e-005 -11.7672 -6.61436 -1.27422 179.205 -10.467 -94.3655 65.166 -71.2288 53.2573 -9.332 0 6.36111e-015 -38.6525 -15.5435 -32.9682 179.279 4.15501 99.8558 64.0199 58.1805 -50.9999 -24.3795 0 1.59028e-015 -33.496 25.1452 32.9815 -6.93813 2.72008 -177.411 -16.9302 0 3.97569e-016 18.1043 12.7236 -7.56415 90 3.97569e-016 1.59028e-015 -3.65338 -4.95275 179.367 -11.4137 -7.95139e-016 3.97569e-016 12.6556 -10.4439 9.09099 90 1.19271e-015 1.59028e-015 
411.443 89.1571 9.69118 155.391 -84.8201 64.3804 -0.615722 -0.988007 0.442528 -1.22546 -1.98028 0.874763 -1.22546 -1.98028 0.874754 -8.30728e-012 -9.0191e-006 -5.27751e-005 -12.2669 -7.16433 -1.41875 179.236 -10.3117 -94.2616 64.2637 -71.3927 53.2757 -9.41582 -1.59028e-015 3.18055e-015 -38.7675 -15.3391 -32.7068 179.289 4.1067 99.8282 63.7145 58.3011 -51.5627 -24.2908 0 -1.59028e-015 -33.4276 25.0665 32.9968 -7.10133 2.75261 -177.342 -17.0289 0 -5.96354e-016 18.1313 12.8431 -7.63789 90 -5.46658e-016 -0 -3.81716 -5.05879 179.402 -11.5759 7.95139e-016 -9.93923e-017 12.6862 -10.4655 9.11928 90 0 -3.18055e-015 
411.504 89.1642 9.79104 154.693 -84.7341 63.6837 -0.614818 -0.988089 0.436881 -1.22048 -1.98038 0.863498 -1.22048 -1.98038 0.863488 -8.30768e-012 -9.0191e-006 -5.27751e-005 -12.7984 -7.69976 -1.49774 179.258 -10.329 -94.1339 62.9364 -71.5667 52.8774 -9.74688 0 3.18055e-015 -38.9008 -15.4008 -32.9438 179.274 4.20193 99.8128 63.3868 58.4031 -52.0664 -24.5618 3.18055e-015 3.18055e-015 -33.4232 24.9249 32.8959 -7.29025 2.75543 -177.3 -17.1228 1.59028e-015 9.93923e-016 18.157 12.9569 -7.70819 90 -1.49089e-016 1.59028e-015 -3.99447 -5.18369 179.428 -11.7209 3.97569e-016 -3.97569e-016 12.7478 -10.5057 9.09428 90 3.45388e-015 -1.59028e-015 
411.575 89.1691 9.88794 154.353 -84.6435 63.3308 -0.614036 -0.988133 0.436155 -1.23339 -1.98044 0.861954 -1.23339 -1.98044 0.861945 -8.30728e-012 -9.0191e-006 -5.27751e-005 -13.4194 -8.48461 -1.66658 179.288 -10.2961 -93.977 61.4672 -71.9129 52.0942 -9.88831 -1.59028e-015 3.18055e-015 -38.9174 -15.4687 -32.9466 179.26 4.2816 99.8183 63.1579 58.601 -52.5317 -24.8274 3.18055e-015 -4.77083e-015 -33.636 24.7033 32.8571 -7.44194 2.70693 -177.241 -17.1215 -1.59028e-015 -3.97569e-016 18.0559 12.9566 -7.71516 90 1.49089e-016 -3.18055e-015 -4.18292 -5.27987 179.48 -11.8579 -3.97569e-016 -0 12.8116 -10.532 9.04839 90 -1.3418e-015 -0 
411.627 89.1726 9.97244 153.924 -84.5913 62.9141 -0.613695 -0.985959 0.426441 -1.22151 -1.97594 0.842648 -1.22151 -1.97594 0.842639 -8.30708e-012 -9.0191e-006 -5.27751e-005 -14.004 -9.56047 -1.94128 179.302 -10.1183 -93.9679 59.8072 -71.93 50.8038 -10.0709 1.59028e-015 -9.54166e-015 -39.0815 -15.4948 -33.1529 179.269 4.22278 99.8245 62.6432 58.6389 -52.4477 -25.0257 0 1.59028e-015 -33.6913 24.7305 32.9276 -7.5551 2.69461 -177.218 -17.1496 0 1.98785e-016 18.0306 12.9923 -7.74048 90 1.78906e-015 -0 -4.36803 -5.4146 179.481 -12.0824 -7.95139e-016 -9.93923e-017 12.967 -10.6211 9.03048 90 1.04362e-015 4.77083e-015 
411.675 89.1722 10.0536 154.08 -84.547 63.1104 -0.613822 -0.972665 0.413663 -1.22087 -1.94921 0.817234 -1.22087 -1.94921 0.817225 -8.30728e-012 -9.0191e-006 -5.27751e-005 -14.5024 -11.049 -2.51991 179.306 -10.1086 -93.9466 58.9409 -72.2929 50.4014 -10.0458 0 6.36111e-015 -39.2423 -15.2557 -32.9821 179.254 4.27494 99.9117 62.3215 58.7631 -52.6522 -25.0631 -6.36111e-015 4.77083e-015 -33.9031 24.4945 32.9289 -7.68371 2.75041 -177.213 -17.1856 -2.38542e-015 1.98785e-016 18.0035 13.0625 -7.80762 90 -1.49089e-016 -0 -4.58345 -5.43034 179.464 -12.3265 1.19271e-015 -0 13.125 -10.6538 8.93726 90 9.06955e-016 1.59028e-015 
411.724 89.1724 10.1345 154.099 -84.4805 63.1604 -0.619418 -0.966644 0.405068 -1.23225 -1.93712 0.800009 -1.23225 -1.93712 0.8 -8.30708e-012 -9.0191e-006 -5.27751e-005 -14.9655 -12.886 -3.22742 179.321 -10.0603 -93.8787 57.501 -72.4924 49.2867 -10.0587 -3.18055e-015 3.18055e-015 -39.3578 -15.2241 -33.1359 179.248 4.25692 100.029 62.102 58.7853 -52.8215 -25.1646 0 -4.77083e-015 -33.8976 24.3073 32.8093 -7.82577 2.77614 -177.207 -17.2205 -1.59028e-015 -9.93923e-016 17.987 13.1143 -7.84868 90 6.4605e-016 1.59028e-015 -4.76031 -5.38582 179.47 -12.4672 0 -0 13.1863 -10.606 8.81745 90 2.72087e-015 -0 
411.762 89.1719 10.1929 154.012 -84.4165 63.1218 -0.62529 -0.95297 0.384575 -1.24442 -1.90959 0.75906 -1.24442 -1.90959 0.759051 -8.30748e-012 -9.0191e-006 -5.27751e-005 -15.2444 -14.7701 -3.88642 179.32 -9.90726 -93.9465 57.0372 -72.8055 49.0262 -9.95221 -1.59028e-015 -4.77083e-015 -39.4499 -15.103 -32.9985 179.239 4.28702 100.076 61.7191 58.7985 -52.8188 -25.2288 0 6.36111e-015 -33.8259 24.1513 32.7183 -7.95187 2.86327 -177.213 -17.2656 -1.59028e-015 -1.98785e-016 18.0009 13.2089 -7.9392 90 2.98177e-016 -0 -4.91847 -5.36215 179.449 -12.6131 7.95139e-016 -9.93923e-017 13.265 -10.5776 8.71599 90 1.73937e-016 -0 
411.794 89.1717 10.2307 153.28 -84.3503 62.4128 -0.63065 -0.961222 0.375383 -1.25525 -1.92603 0.740496 -1.25525 -1.92603 0.740486 -8.30708e-012 -9.0191e-006 -5.27751e-005 -15.3958 -16.426 -4.44292 179.324 -9.86712 -93.9374 56.3765 -73.0806 48.6297 -9.88788 -1.59028e-015 -0 -39.5125 -15.0221 -33.047 179.237 4.2664 100.148 61.258 58.698 -52.6917 -25.3602 0 -0 -33.7309 23.97 32.5715 -8.05079 2.87404 -177.204 -17.3239 1.59028e-015 7.95139e-016 18.0319 13.3012 -8.01332 90 -9.93923e-017 -1.59028e-015 -4.97676 -5.37477 179.452 -12.6524 0 -0 13.2762 -10.5202 8.63101 90 -8.44835e-016 -0 
411.818 89.1716 10.2471 152.159 -84.2989 61.3075 -0.630255 -0.978787 0.376462 -1.25847 -1.96123 0.752257 -1.25847 -1.96123 0.752247 -8.30669e-012 -9.0191e-006 -5.27751e-005 -15.4886 -17.7905 -4.91663 179.325 -10.0034 -93.8776 55.7627 -73.3254 48.4599 -9.80081 -1.59028e-015 -1.59028e-015 -39.7236 -14.8359 -33.0226 179.214 4.35918 100.236 60.9273 58.702 -52.7474 -25.5589 -3.18055e-015 3.18055e-015 -33.3438 23.6409 32.0248 -8.1065 2.85778 -177.195 -17.387 -2.38542e-015 -0 18.0777 13.3986 -8.08931 90 5.96354e-016 1.59028e-015 -4.96044 -5.43691 179.458 -12.6409 -3.97569e-016 -2.98177e-016 13.2668 -10.4686 8.5647 90 -2.48481e-016 1.59028e-015 
411.833 89.1717 10.2456 150.86 -84.2757 60.0226 -0.629477 -0.982603 0.379036 -1.25562 -1.96884 0.749688 -1.25562 -1.96884 0.749678 -8.30669e-012 -9.0191e-006 -5.27751e-005 -15.528 -19.0291 -5.24923 179.317 -9.96909 -93.94 55.7496 -73.5031 48.7361 -9.77252 -1.59028e-015 3.18055e-015 -39.7455 -14.8613 -33.0688 179.209 4.37245 100.26 60.704 58.7321 -52.6984 -25.6339 -3.18055e-015 -0 -33.3243 23.5209 31.9758 -8.09573 2.80145 -177.194 -17.4166 1.59028e-015 -0 18.0919 13.4615 -8.15012 90 -2.78299e-015 -3.18055e-015 -4.89692 -5.52107 179.455 -12.6326 0 9.93923e-017 13.2812 -10.4488 8.53357 90 -8.57259e-016 -0 
411.84 89.1722 10.2266 149.824 -84.2617 58.9984 -0.628384 -0.982704 0.382124 -1.25047 -1.96905 0.753788 -1.25047 -1.96905 0.753779 -8.30728e-012 -9.0191e-006 -5.27751e-005 -15.5288 -20.1488 -5.5705 179.324 -9.83708 -93.9494 54.8809 -73.3641 47.9652 -9.81337 -3.18055e-015 -0 -39.6973 -14.8212 -33.0543 179.208 4.36272 100.298 60.543 58.7518 -52.6566 -25.5963 3.18055e-015 -0 -33.3555 23.4073 31.9579 -8.05838 2.75859 -177.198 -17.4223 -1.59028e-015 -1.98785e-016 18.11 13.4953 -8.19182 90 -1.04362e-015 1.59028e-015 -4.79344 -5.54138 179.456 -12.5557 3.97569e-016 3.97569e-016 13.239 -10.3916 8.50672 90 2.36057e-016 3.18055e-015 
411.842 89.173 10.1952 149.003 -84.2592 58.2007 -0.625628 -0.983704 0.387448 -1.24472 -1.98567 0.7644 -1.24472 -1.98567 0.764391 -8.30708e-012 -9.0191e-006 -5.27751e-005 -15.597 -21.0764 -5.82259 179.327 -9.83269 -93.9376 54.6233 -73.3914 47.8386 -9.74695 -3.18055e-015 1.59028e-015 -39.6961 -14.6982 -32.8982 179.205 4.38385 100.292 60.0633 58.7435 -52.3978 -25.5503 3.18055e-015 1.59028e-015 -33.3433 23.2839 31.9508 -7.9828 2.67827 -177.222 -17.3763 -7.95139e-016 -0 18.0798 13.4867 -8.22529 90 9.44227e-016 1.59028e-015 -4.69012 -5.5531 179.445 -12.4835 0 9.93923e-017 13.1986 -10.3315 8.48043 90 -4.96962e-017 -1.59028e-015 
